<svg id="Layer_1" data-name="Layer 1" xmlns="http://www.w3.org/2000/svg" viewBox="0 0 200 100"><defs><style>.cls-1{font-size:16.42px;font-family:Montserrat-Black, Montserrat;letter-spacing:0.1em;}.cls-1,.cls-3{fill:#fff;}.cls-2{letter-spacing:0.09em;}</style></defs><title>logowhite</title><text class="cls-1" transform="translate(59.04 45.32)">MAÎTRE <tspan x="0" y="19.49">ABDE</tspan><tspan class="cls-2" x="57.09" y="19.49">LQA</tspan><tspan x="98.8" y="19.49">OUI</tspan></text><path class="cls-3" d="M31.3,32.08a3.83,3.83,0,1,1,3.83-3.83A3.84,3.84,0,0,1,31.3,32.08Zm0-6.34a2.51,2.51,0,1,0,2.51,2.51A2.51,2.51,0,0,0,31.3,25.74Z"/><path class="cls-3" d="M31.3,73.58a.44.44,0,0,1-.44-.44V38.75a.44.44,0,1,1,.88,0V73.14A.44.44,0,0,1,31.3,73.58Z"/><path class="cls-3" d="M40.32,62.45H40.2a.44.44,0,0,1-.3-.55l4.45-15a.44.44,0,1,1,.84.25l-4.45,15A.43.43,0,0,1,40.32,62.45Z"/><path class="cls-3" d="M49.21,62.45a.44.44,0,0,1-.42-.31l-4.44-15a.44.44,0,0,1,.29-.55.45.45,0,0,1,.55.3l4.45,15a.46.46,0,0,1-.3.55Z"/><path class="cls-3" d="M44.77,66.9A4.88,4.88,0,0,1,39.88,62v-.44h9.77V62a4.72,4.72,0,0,1-.32,1.75A4.91,4.91,0,0,1,44.77,66.9Zm-4-4.45a3.34,3.34,0,0,0,.24,1,4,4,0,0,0,7.48,0,4.09,4.09,0,0,0,.24-1Z"/><circle class="cls-3" cx="44.77" cy="46.12" r="1.98"/><path class="cls-3" d="M44.6,46a.44.44,0,0,1-.44-.44V38.74a.44.44,0,0,1,.44-.44.44.44,0,0,1,.44.44v6.85A.44.44,0,0,1,44.6,46Z"/><path class="cls-3" d="M43.76,42.67c-3.72,0-4.66-3.77-4.67-3.81a.44.44,0,0,1,.86-.21,4,4,0,0,0,4.59,3.08.44.44,0,0,1,.13.87A5.94,5.94,0,0,1,43.76,42.67Z"/><path class="cls-3" d="M38.08,36.35a4.63,4.63,0,0,1-3.57-1.41,6.58,6.58,0,0,1-1.37-4.54.44.44,0,0,1,.88.08,5.76,5.76,0,0,0,1.14,3.87,3.78,3.78,0,0,0,2.92,1.12.44.44,0,0,1,.44.44A.44.44,0,0,1,38.08,36.35Z"/><path class="cls-3" d="M22.28,62.45a.45.45,0,0,1-.43-.31l-4.44-15a.44.44,0,0,1,.3-.55.45.45,0,0,1,.54.3l4.45,15a.45.45,0,0,1-.3.55Z"/><path class="cls-3" d="M13.39,62.45h-.13a.45.45,0,0,1-.3-.55l4.45-15a.44.44,0,1,1,.84.25l-4.44,15A.44.44,0,0,1,13.39,62.45Z"/><path class="cls-3" d="M17.83,66.9a4.91,4.91,0,0,1-4.56-3.14A4.72,4.72,0,0,1,13,62v-.44h9.77V62a4.88,4.88,0,0,1-4.89,4.89Zm-4-4.45a4.09,4.09,0,0,0,.24,1,4,4,0,0,0,7.48,0,3.34,3.34,0,0,0,.24-1Z"/><path class="cls-3" d="M48,34.57a2.87,2.87,0,0,0-3.63-1.8,2.38,2.38,0,0,0-1.5,3A2,2,0,0,0,45.39,37a.44.44,0,1,0-.28-.83,1.11,1.11,0,0,1-1.4-.71,1.5,1.5,0,0,1,.94-1.9,2,2,0,0,1,2.52,1.25,2.61,2.61,0,0,1-1.64,3.29,3.32,3.32,0,0,1-.76.16H17.83a3.32,3.32,0,0,1-.76-.16,2.61,2.61,0,0,1-1.64-3.29A2,2,0,0,1,18,33.6a1.5,1.5,0,0,1,.94,1.9,1.11,1.11,0,0,1-1.41.71.42.42,0,0,0-.55.27.44.44,0,0,0,.27.56,2,2,0,0,0,2.53-1.26,2.38,2.38,0,0,0-1.5-3,2.87,2.87,0,0,0-3.63,1.8A3.48,3.48,0,0,0,16.79,39a4,4,0,0,0,1.19.22l.46,0v0H44.16v0l.46,0A4,4,0,0,0,45.81,39,3.48,3.48,0,0,0,48,34.57Z"/><path class="cls-3" d="M34.82,38.46a.44.44,0,0,0-.44.44V67.64l-3.08,4.7-3.08-4.7V38.9a.44.44,0,1,0-.88,0v29l3.59,5.48h0l0,.06h0l.07.05h0l0,0h.38l0,0h0s.05,0,.06-.05h0l0-.06h0l3.59-5.48v-29A.44.44,0,0,0,34.82,38.46Z"/><circle class="cls-3" cx="17.83" cy="46.12" r="1.98"/><path class="cls-3" d="M18,46a.44.44,0,0,1-.44-.44V38.74a.45.45,0,0,1,.89,0v6.85A.45.45,0,0,1,18,46Z"/><path class="cls-3" d="M18.84,42.67a5.84,5.84,0,0,1-.91-.07.44.44,0,0,1,.13-.87,4,4,0,0,0,4.59-3.08.44.44,0,0,1,.86.21S22.55,42.67,18.84,42.67Z"/><path class="cls-3" d="M40.32,35.47h-18a.43.43,0,0,0-.44.44.44.44,0,0,0,.44.44h18a.44.44,0,0,0,.44-.44A.43.43,0,0,0,40.32,35.47Z"/><path class="cls-3" d="M24.52,36.35a.44.44,0,0,1-.44-.44.44.44,0,0,1,.44-.44,3.8,3.8,0,0,0,2.92-1.12,5.76,5.76,0,0,0,1.14-3.87A.44.44,0,0,1,29,30a.42.42,0,0,1,.47.39,6.55,6.55,0,0,1-1.36,4.54A4.65,4.65,0,0,1,24.52,36.35Z"/><path class="cls-3" d="M13.68,63.6H22a4.44,4.44,0,0,1-8.3,0Z"/><path class="cls-3" d="M48.92,63.6a4.45,4.45,0,0,1-8.31,0Z"/></svg>